M48
M72,TZ
T10C0.039370
T11C0.035000
T12C0.031497
T13C0.059055
T14C0.030000
%
T10
X0.073060Y0.092040
X0.173060Y0.092040
X0.273060Y0.092040
X0.373060Y0.092040
X0.473060Y0.092040
X0.573060Y0.092040
X0.673060Y0.092040
X0.773060Y0.092040
X0.873060Y0.092040
X0.973060Y0.092040
X1.073060Y0.092040
X1.173060Y0.092040
X1.273060Y0.092040
X1.373060Y0.092040
X1.473060Y0.092040
X1.573060Y0.092040
X1.673060Y0.092040
X1.773060Y0.092040
X1.873060Y0.092040
X1.973060Y0.092040
X2.073060Y0.092040
X2.173060Y0.092040
X2.873060Y0.742050
X2.873060Y0.842050
X2.873060Y0.942050
X2.873060Y1.042045
X2.873060Y1.142045
X2.873060Y1.242045
X1.071660Y1.242375
X2.371660Y0.942380
X1.171660Y1.242375
X2.271660Y0.942380
X1.271660Y1.242375
X2.171660Y0.942380
X1.371660Y1.242375
X2.071660Y0.942380
X1.471660Y1.242375
X1.971660Y0.942380
X1.571660Y1.242375
X1.871660Y0.942380
X1.671660Y1.242375
X1.771660Y0.942380
X1.771660Y1.242375
X1.671660Y0.942380
X1.871660Y1.242375
X1.571660Y0.942380
X1.971660Y1.242375
X1.471660Y0.942380
X2.071660Y1.242375
X1.371660Y0.942380
X2.171660Y1.242375
X1.271660Y0.942380
X2.271660Y1.242375
X1.171660Y0.942380
X2.371660Y1.242375
X1.071660Y0.942380
T11
X2.723060Y0.342040
X1.273060Y0.342040
X2.673060Y0.492040
X1.171670Y0.492380
X2.723060Y1.492044
X1.473060Y1.492044
X1.671670Y0.792380
X0.973056Y0.792040
X2.521670Y1.542378
X1.571670Y1.542378
X2.621670Y1.442378
X1.771670Y1.442378
X1.973060Y0.692040
X1.873060Y0.692040
X1.773060Y0.692040
X2.823060Y1.642044
X2.723060Y1.642044
X0.921667Y0.942380
X0.921667Y1.042378
T12
X2.623060Y1.792045
X2.623060Y1.890478
T13
X0.973060Y0.642040
X1.073060Y0.642040
T14
X1.571490Y1.392378
X1.671670Y1.392378
T00
M30
