M48
M72,TZ
T10C0.039370
T11C0.035000
T12C0.031497
T13C0.059055
T14C0.030000
%
T10
X0.073060Y0.092050
X0.173060Y0.092050
X0.273060Y0.092050
X0.373060Y0.092050
X0.473060Y0.092050
X0.573060Y0.092050
X0.673060Y0.092050
X0.773060Y0.092050
X0.873060Y0.092050
X0.973060Y0.092050
X1.073060Y0.092050
X1.173060Y0.092050
X1.273060Y0.092050
X1.373060Y0.092050
X1.473060Y0.092050
X1.573060Y0.092050
X1.673060Y0.092050
X1.773060Y0.092050
X1.873060Y0.092050
X1.973060Y0.092050
X2.073060Y0.092050
X2.173060Y0.092050
X2.873050Y0.742050
X2.873050Y0.842050
X2.873050Y0.942050
X2.873050Y1.042048
X2.873050Y1.142048
X2.873050Y1.242048
X1.071660Y1.242385
X2.371660Y0.942390
X1.171660Y1.242385
X2.271660Y0.942390
X1.271660Y1.242385
X2.171660Y0.942390
X1.371660Y1.242385
X2.071660Y0.942390
X1.471660Y1.242385
X1.971660Y0.942390
X1.571660Y1.242385
X1.871660Y0.942390
X1.671660Y1.242385
X1.771660Y0.942390
X1.771660Y1.242385
X1.671660Y0.942390
X1.871660Y1.242385
X1.571660Y0.942390
X1.971660Y1.242385
X1.471660Y0.942390
X2.071660Y1.242385
X1.371660Y0.942390
X2.171660Y1.242385
X1.271660Y0.942390
X2.271660Y1.242385
X1.171660Y0.942390
X2.371660Y1.242385
X1.071660Y0.942390
T11
X2.723050Y0.342050
X1.273050Y0.342050
X2.673060Y0.492040
X1.171670Y0.492380
X2.723050Y1.492047
X1.473050Y1.492047
X1.671670Y0.792380
X0.973054Y0.792040
X2.521670Y1.542383
X1.571670Y1.542383
X2.621670Y1.442383
X1.771670Y1.442383
X1.973050Y0.692050
X1.873050Y0.692050
X1.773050Y0.692050
X2.823050Y1.642047
X2.723050Y1.642047
X0.921669Y0.942380
X0.921669Y1.042383
T12
X2.623050Y1.792048
X2.623050Y1.890481
T13
X0.973050Y0.642050
X1.073050Y0.642050
T14
X1.571490Y1.392383
X1.671670Y1.392383
T00
M30
